<mxfile host="app.diagrams.net" modified="2024-04-07T20:06:17.675Z" agent="Mozilla/5.0 (Windows NT 10.0; Win64; x64) AppleWebKit/537.36 (KHTML, like Gecko) Chrome/123.0.0.0 Safari/537.36" etag="NKNqT1zBDtKMmE6lActn" version="24.2.2" type="device">
  <diagram name="Página-1" id="wdMeWJEnil79WT0xZNIh">
    <mxGraphModel dx="1877" dy="522" grid="1" gridSize="10" guides="1" tooltips="1" connect="1" arrows="1" fold="1" page="1" pageScale="1" pageWidth="827" pageHeight="1169" math="0" shadow="0">
      <root>
        <mxCell id="0" />
        <mxCell id="1" parent="0" />
        <mxCell id="0spZm-EfdhwM5rsaG5ed-1" style="edgeStyle=orthogonalEdgeStyle;rounded=0;orthogonalLoop=1;jettySize=auto;html=1;" parent="1" source="RrLzr7xgLB7CRpg2Q4Ah-9" target="RrLzr7xgLB7CRpg2Q4Ah-21" edge="1">
          <mxGeometry relative="1" as="geometry" />
        </mxCell>
        <mxCell id="7tjaN-nobCpIpOOMfUjn-23" style="edgeStyle=orthogonalEdgeStyle;rounded=0;orthogonalLoop=1;jettySize=auto;html=1;exitX=0;exitY=0.5;exitDx=0;exitDy=0;" parent="1" source="RrLzr7xgLB7CRpg2Q4Ah-9" target="7tjaN-nobCpIpOOMfUjn-19" edge="1">
          <mxGeometry relative="1" as="geometry">
            <Array as="points">
              <mxPoint x="-350" y="40" />
              <mxPoint x="-380" y="40" />
              <mxPoint x="-380" y="340" />
            </Array>
          </mxGeometry>
        </mxCell>
        <mxCell id="7tjaN-nobCpIpOOMfUjn-24" style="edgeStyle=orthogonalEdgeStyle;rounded=0;orthogonalLoop=1;jettySize=auto;html=1;exitX=1;exitY=0.5;exitDx=0;exitDy=0;" parent="1" source="RrLzr7xgLB7CRpg2Q4Ah-9" target="RrLzr7xgLB7CRpg2Q4Ah-17" edge="1">
          <mxGeometry relative="1" as="geometry" />
        </mxCell>
        <mxCell id="7tjaN-nobCpIpOOMfUjn-38" style="edgeStyle=orthogonalEdgeStyle;rounded=0;orthogonalLoop=1;jettySize=auto;html=1;" parent="1" source="RrLzr7xgLB7CRpg2Q4Ah-9" target="7tjaN-nobCpIpOOMfUjn-34" edge="1">
          <mxGeometry relative="1" as="geometry">
            <Array as="points">
              <mxPoint x="-280" y="20" />
              <mxPoint x="-520" y="20" />
            </Array>
          </mxGeometry>
        </mxCell>
        <mxCell id="7tjaN-nobCpIpOOMfUjn-41" style="edgeStyle=orthogonalEdgeStyle;rounded=0;orthogonalLoop=1;jettySize=auto;html=1;entryX=1;entryY=0.5;entryDx=0;entryDy=0;" parent="1" source="RrLzr7xgLB7CRpg2Q4Ah-9" target="7tjaN-nobCpIpOOMfUjn-39" edge="1">
          <mxGeometry relative="1" as="geometry">
            <Array as="points">
              <mxPoint x="-410" y="50" />
              <mxPoint x="-410" y="140" />
            </Array>
          </mxGeometry>
        </mxCell>
        <mxCell id="7tjaN-nobCpIpOOMfUjn-43" style="edgeStyle=orthogonalEdgeStyle;rounded=0;orthogonalLoop=1;jettySize=auto;html=1;entryX=0.5;entryY=1;entryDx=0;entryDy=0;" parent="1" source="RrLzr7xgLB7CRpg2Q4Ah-9" target="7tjaN-nobCpIpOOMfUjn-42" edge="1">
          <mxGeometry relative="1" as="geometry" />
        </mxCell>
        <mxCell id="9p7t4piKM5L8PV-O4CBv-5" style="edgeStyle=orthogonalEdgeStyle;rounded=0;orthogonalLoop=1;jettySize=auto;html=1;entryX=1;entryY=0.5;entryDx=0;entryDy=0;" edge="1" parent="1" source="RrLzr7xgLB7CRpg2Q4Ah-9" target="9p7t4piKM5L8PV-O4CBv-4">
          <mxGeometry relative="1" as="geometry" />
        </mxCell>
        <mxCell id="RrLzr7xgLB7CRpg2Q4Ah-9" value="&lt;b&gt;&lt;font style=&quot;font-size: 14px;&quot;&gt;Restaurante&lt;/font&gt;&lt;/b&gt;" style="swimlane;fontStyle=0;childLayout=stackLayout;horizontal=1;startSize=30;horizontalStack=0;resizeParent=1;resizeParentMax=0;resizeLast=0;collapsible=1;marginBottom=0;whiteSpace=wrap;html=1;" parent="1" vertex="1">
          <mxGeometry x="-350" y="30" width="140" height="40" as="geometry" />
        </mxCell>
        <mxCell id="RrLzr7xgLB7CRpg2Q4Ah-13" value="&lt;span style=&quot;font-size: 14px;&quot;&gt;&lt;b&gt;Inscripción&lt;/b&gt;&lt;/span&gt;" style="swimlane;fontStyle=0;childLayout=stackLayout;horizontal=1;startSize=30;horizontalStack=0;resizeParent=1;resizeParentMax=0;resizeLast=0;collapsible=1;marginBottom=0;whiteSpace=wrap;html=1;" parent="1" vertex="1">
          <mxGeometry x="240" y="30" width="140" height="150" as="geometry" />
        </mxCell>
        <mxCell id="RrLzr7xgLB7CRpg2Q4Ah-14" value="+ nombre : str&lt;span style=&quot;white-space: pre;&quot;&gt;&#x9;&lt;/span&gt;&lt;span style=&quot;white-space: pre;&quot;&gt;&#x9;&lt;/span&gt;" style="text;strokeColor=none;fillColor=none;align=left;verticalAlign=middle;spacingLeft=4;spacingRight=4;overflow=hidden;points=[[0,0.5],[1,0.5]];portConstraint=eastwest;rotatable=0;whiteSpace=wrap;html=1;" parent="RrLzr7xgLB7CRpg2Q4Ah-13" vertex="1">
          <mxGeometry y="30" width="140" height="30" as="geometry" />
        </mxCell>
        <mxCell id="RrLzr7xgLB7CRpg2Q4Ah-15" value="+ id : int" style="text;strokeColor=none;fillColor=none;align=left;verticalAlign=middle;spacingLeft=4;spacingRight=4;overflow=hidden;points=[[0,0.5],[1,0.5]];portConstraint=eastwest;rotatable=0;whiteSpace=wrap;html=1;" parent="RrLzr7xgLB7CRpg2Q4Ah-13" vertex="1">
          <mxGeometry y="60" width="140" height="30" as="geometry" />
        </mxCell>
        <mxCell id="RrLzr7xgLB7CRpg2Q4Ah-16" value="+ clave : int" style="text;strokeColor=none;fillColor=none;align=left;verticalAlign=middle;spacingLeft=4;spacingRight=4;overflow=hidden;points=[[0,0.5],[1,0.5]];portConstraint=eastwest;rotatable=0;whiteSpace=wrap;html=1;" parent="RrLzr7xgLB7CRpg2Q4Ah-13" vertex="1">
          <mxGeometry y="90" width="140" height="30" as="geometry" />
        </mxCell>
        <mxCell id="RrLzr7xgLB7CRpg2Q4Ah-30" value="+ meseros&amp;nbsp;" style="text;strokeColor=none;fillColor=none;align=left;verticalAlign=middle;spacingLeft=4;spacingRight=4;overflow=hidden;points=[[0,0.5],[1,0.5]];portConstraint=eastwest;rotatable=0;whiteSpace=wrap;html=1;" parent="RrLzr7xgLB7CRpg2Q4Ah-13" vertex="1">
          <mxGeometry y="120" width="140" height="30" as="geometry" />
        </mxCell>
        <mxCell id="7tjaN-nobCpIpOOMfUjn-1" style="edgeStyle=orthogonalEdgeStyle;rounded=0;orthogonalLoop=1;jettySize=auto;html=1;exitX=0.5;exitY=1;exitDx=0;exitDy=0;" parent="1" source="RrLzr7xgLB7CRpg2Q4Ah-17" target="RrLzr7xgLB7CRpg2Q4Ah-25" edge="1">
          <mxGeometry relative="1" as="geometry" />
        </mxCell>
        <mxCell id="7tjaN-nobCpIpOOMfUjn-10" style="edgeStyle=orthogonalEdgeStyle;rounded=0;orthogonalLoop=1;jettySize=auto;html=1;exitX=0.5;exitY=0;exitDx=0;exitDy=0;" parent="1" source="RrLzr7xgLB7CRpg2Q4Ah-17" target="7tjaN-nobCpIpOOMfUjn-2" edge="1">
          <mxGeometry relative="1" as="geometry" />
        </mxCell>
        <mxCell id="7tjaN-nobCpIpOOMfUjn-33" style="edgeStyle=orthogonalEdgeStyle;rounded=0;orthogonalLoop=1;jettySize=auto;html=1;" parent="1" source="RrLzr7xgLB7CRpg2Q4Ah-17" target="RrLzr7xgLB7CRpg2Q4Ah-13" edge="1">
          <mxGeometry relative="1" as="geometry">
            <Array as="points">
              <mxPoint x="150" y="50" />
              <mxPoint x="150" y="50" />
            </Array>
          </mxGeometry>
        </mxCell>
        <mxCell id="RrLzr7xgLB7CRpg2Q4Ah-17" value="&lt;b&gt;&lt;font style=&quot;font-size: 14px;&quot;&gt;Meseros&lt;span style=&quot;white-space: pre;&quot;&gt;&#x9;&lt;/span&gt;&lt;/font&gt;&lt;/b&gt;" style="swimlane;fontStyle=0;childLayout=stackLayout;horizontal=1;startSize=30;horizontalStack=0;resizeParent=1;resizeParentMax=0;resizeLast=0;collapsible=1;marginBottom=0;whiteSpace=wrap;html=1;" parent="1" vertex="1">
          <mxGeometry x="-120" y="30" width="140" height="40" as="geometry" />
        </mxCell>
        <mxCell id="7tjaN-nobCpIpOOMfUjn-17" style="edgeStyle=orthogonalEdgeStyle;rounded=0;orthogonalLoop=1;jettySize=auto;html=1;exitX=0.5;exitY=1;exitDx=0;exitDy=0;entryX=0.5;entryY=0;entryDx=0;entryDy=0;" parent="1" source="RrLzr7xgLB7CRpg2Q4Ah-21" target="7tjaN-nobCpIpOOMfUjn-11" edge="1">
          <mxGeometry relative="1" as="geometry" />
        </mxCell>
        <mxCell id="RrLzr7xgLB7CRpg2Q4Ah-21" value="&lt;span style=&quot;font-size: 14px;&quot;&gt;&lt;b&gt;Mesas&lt;/b&gt;&lt;/span&gt;" style="swimlane;fontStyle=0;childLayout=stackLayout;horizontal=1;startSize=30;horizontalStack=0;resizeParent=1;resizeParentMax=0;resizeLast=0;collapsible=1;marginBottom=0;whiteSpace=wrap;html=1;" parent="1" vertex="1">
          <mxGeometry x="-350" y="100" width="140" height="40" as="geometry" />
        </mxCell>
        <mxCell id="RrLzr7xgLB7CRpg2Q4Ah-25" value="&lt;b&gt;&lt;font style=&quot;font-size: 14px;&quot;&gt;Meserosquesetienen&lt;/font&gt;&lt;/b&gt;" style="swimlane;fontStyle=0;childLayout=stackLayout;horizontal=1;startSize=30;horizontalStack=0;resizeParent=1;resizeParentMax=0;resizeLast=0;collapsible=1;marginBottom=0;whiteSpace=wrap;html=1;" parent="1" vertex="1">
          <mxGeometry x="-125" y="110" width="150" height="40" as="geometry" />
        </mxCell>
        <mxCell id="7tjaN-nobCpIpOOMfUjn-2" value="&lt;span style=&quot;font-size: 14px;&quot;&gt;&lt;b&gt;Cuenta&lt;/b&gt;&lt;/span&gt;" style="swimlane;fontStyle=0;childLayout=stackLayout;horizontal=1;startSize=30;horizontalStack=0;resizeParent=1;resizeParentMax=0;resizeLast=0;collapsible=1;marginBottom=0;whiteSpace=wrap;html=1;" parent="1" vertex="1">
          <mxGeometry x="60" y="90" width="140" height="180" as="geometry" />
        </mxCell>
        <mxCell id="7tjaN-nobCpIpOOMfUjn-3" value="+ self" style="text;strokeColor=none;fillColor=none;align=left;verticalAlign=middle;spacingLeft=4;spacingRight=4;overflow=hidden;points=[[0,0.5],[1,0.5]];portConstraint=eastwest;rotatable=0;whiteSpace=wrap;html=1;" parent="7tjaN-nobCpIpOOMfUjn-2" vertex="1">
          <mxGeometry y="30" width="140" height="30" as="geometry" />
        </mxCell>
        <mxCell id="7tjaN-nobCpIpOOMfUjn-4" value="+ menu" style="text;strokeColor=none;fillColor=none;align=left;verticalAlign=middle;spacingLeft=4;spacingRight=4;overflow=hidden;points=[[0,0.5],[1,0.5]];portConstraint=eastwest;rotatable=0;whiteSpace=wrap;html=1;" parent="7tjaN-nobCpIpOOMfUjn-2" vertex="1">
          <mxGeometry y="60" width="140" height="30" as="geometry" />
        </mxCell>
        <mxCell id="7tjaN-nobCpIpOOMfUjn-5" value="+ mesero" style="text;strokeColor=none;fillColor=none;align=left;verticalAlign=middle;spacingLeft=4;spacingRight=4;overflow=hidden;points=[[0,0.5],[1,0.5]];portConstraint=eastwest;rotatable=0;whiteSpace=wrap;html=1;" parent="7tjaN-nobCpIpOOMfUjn-2" vertex="1">
          <mxGeometry y="90" width="140" height="30" as="geometry" />
        </mxCell>
        <mxCell id="7tjaN-nobCpIpOOMfUjn-7" value="+ elemento" style="text;strokeColor=none;fillColor=none;align=left;verticalAlign=middle;spacingLeft=4;spacingRight=4;overflow=hidden;points=[[0,0.5],[1,0.5]];portConstraint=eastwest;rotatable=0;whiteSpace=wrap;html=1;" parent="7tjaN-nobCpIpOOMfUjn-2" vertex="1">
          <mxGeometry y="120" width="140" height="30" as="geometry" />
        </mxCell>
        <mxCell id="7tjaN-nobCpIpOOMfUjn-8" value="+ cantidad" style="text;strokeColor=none;fillColor=none;align=left;verticalAlign=middle;spacingLeft=4;spacingRight=4;overflow=hidden;points=[[0,0.5],[1,0.5]];portConstraint=eastwest;rotatable=0;whiteSpace=wrap;html=1;" parent="7tjaN-nobCpIpOOMfUjn-2" vertex="1">
          <mxGeometry y="150" width="140" height="30" as="geometry" />
        </mxCell>
        <mxCell id="7tjaN-nobCpIpOOMfUjn-11" value="&lt;span style=&quot;font-size: 14px;&quot;&gt;&lt;b&gt;Mesa&lt;/b&gt;&lt;/span&gt;" style="swimlane;fontStyle=0;childLayout=stackLayout;horizontal=1;startSize=30;horizontalStack=0;resizeParent=1;resizeParentMax=0;resizeLast=0;collapsible=1;marginBottom=0;whiteSpace=wrap;html=1;" parent="1" vertex="1">
          <mxGeometry x="-350" y="200" width="140" height="120" as="geometry" />
        </mxCell>
        <mxCell id="7tjaN-nobCpIpOOMfUjn-12" value="+ self" style="text;strokeColor=none;fillColor=none;align=left;verticalAlign=middle;spacingLeft=4;spacingRight=4;overflow=hidden;points=[[0,0.5],[1,0.5]];portConstraint=eastwest;rotatable=0;whiteSpace=wrap;html=1;" parent="7tjaN-nobCpIpOOMfUjn-11" vertex="1">
          <mxGeometry y="30" width="140" height="30" as="geometry" />
        </mxCell>
        <mxCell id="7tjaN-nobCpIpOOMfUjn-13" value="+ cantidad_mesas : int" style="text;strokeColor=none;fillColor=none;align=left;verticalAlign=middle;spacingLeft=4;spacingRight=4;overflow=hidden;points=[[0,0.5],[1,0.5]];portConstraint=eastwest;rotatable=0;whiteSpace=wrap;html=1;" parent="7tjaN-nobCpIpOOMfUjn-11" vertex="1">
          <mxGeometry y="60" width="140" height="30" as="geometry" />
        </mxCell>
        <mxCell id="7tjaN-nobCpIpOOMfUjn-14" value="+ num_mesa" style="text;strokeColor=none;fillColor=none;align=left;verticalAlign=middle;spacingLeft=4;spacingRight=4;overflow=hidden;points=[[0,0.5],[1,0.5]];portConstraint=eastwest;rotatable=0;whiteSpace=wrap;html=1;" parent="7tjaN-nobCpIpOOMfUjn-11" vertex="1">
          <mxGeometry y="90" width="140" height="30" as="geometry" />
        </mxCell>
        <mxCell id="7tjaN-nobCpIpOOMfUjn-32" style="edgeStyle=orthogonalEdgeStyle;rounded=0;orthogonalLoop=1;jettySize=auto;html=1;" parent="1" source="7tjaN-nobCpIpOOMfUjn-19" target="7tjaN-nobCpIpOOMfUjn-25" edge="1">
          <mxGeometry relative="1" as="geometry" />
        </mxCell>
        <mxCell id="7tjaN-nobCpIpOOMfUjn-19" value="&lt;span style=&quot;font-size: 14px;&quot;&gt;&lt;b&gt;Venta&lt;/b&gt;&lt;/span&gt;" style="swimlane;fontStyle=0;childLayout=stackLayout;horizontal=1;startSize=30;horizontalStack=0;resizeParent=1;resizeParentMax=0;resizeLast=0;collapsible=1;marginBottom=0;whiteSpace=wrap;html=1;" parent="1" vertex="1">
          <mxGeometry x="-350" y="330" width="140" height="40" as="geometry" />
        </mxCell>
        <mxCell id="7tjaN-nobCpIpOOMfUjn-25" value="&lt;span style=&quot;font-size: 14px;&quot;&gt;&lt;b&gt;AnalizadorVentas&lt;/b&gt;&lt;/span&gt;" style="swimlane;fontStyle=0;childLayout=stackLayout;horizontal=1;startSize=30;horizontalStack=0;resizeParent=1;resizeParentMax=0;resizeLast=0;collapsible=1;marginBottom=0;whiteSpace=wrap;html=1;" parent="1" vertex="1">
          <mxGeometry x="-140" y="330" width="140" height="150" as="geometry" />
        </mxCell>
        <mxCell id="7tjaN-nobCpIpOOMfUjn-26" value="+ self" style="text;strokeColor=none;fillColor=none;align=left;verticalAlign=middle;spacingLeft=4;spacingRight=4;overflow=hidden;points=[[0,0.5],[1,0.5]];portConstraint=eastwest;rotatable=0;whiteSpace=wrap;html=1;" parent="7tjaN-nobCpIpOOMfUjn-25" vertex="1">
          <mxGeometry y="30" width="140" height="30" as="geometry" />
        </mxCell>
        <mxCell id="7tjaN-nobCpIpOOMfUjn-27" value="+ cuentas : None" style="text;strokeColor=none;fillColor=none;align=left;verticalAlign=middle;spacingLeft=4;spacingRight=4;overflow=hidden;points=[[0,0.5],[1,0.5]];portConstraint=eastwest;rotatable=0;whiteSpace=wrap;html=1;" parent="7tjaN-nobCpIpOOMfUjn-25" vertex="1">
          <mxGeometry y="60" width="140" height="30" as="geometry" />
        </mxCell>
        <mxCell id="7tjaN-nobCpIpOOMfUjn-28" value="+ mesero&amp;nbsp;" style="text;strokeColor=none;fillColor=none;align=left;verticalAlign=middle;spacingLeft=4;spacingRight=4;overflow=hidden;points=[[0,0.5],[1,0.5]];portConstraint=eastwest;rotatable=0;whiteSpace=wrap;html=1;" parent="7tjaN-nobCpIpOOMfUjn-25" vertex="1">
          <mxGeometry y="90" width="140" height="30" as="geometry" />
        </mxCell>
        <mxCell id="7tjaN-nobCpIpOOMfUjn-30" value="+ total_venta" style="text;strokeColor=none;fillColor=none;align=left;verticalAlign=middle;spacingLeft=4;spacingRight=4;overflow=hidden;points=[[0,0.5],[1,0.5]];portConstraint=eastwest;rotatable=0;whiteSpace=wrap;html=1;" parent="7tjaN-nobCpIpOOMfUjn-25" vertex="1">
          <mxGeometry y="120" width="140" height="30" as="geometry" />
        </mxCell>
        <mxCell id="9p7t4piKM5L8PV-O4CBv-3" style="edgeStyle=orthogonalEdgeStyle;rounded=0;orthogonalLoop=1;jettySize=auto;html=1;entryX=1;entryY=0.5;entryDx=0;entryDy=0;" edge="1" parent="1" source="7tjaN-nobCpIpOOMfUjn-34" target="9p7t4piKM5L8PV-O4CBv-2">
          <mxGeometry relative="1" as="geometry" />
        </mxCell>
        <mxCell id="7tjaN-nobCpIpOOMfUjn-34" value="&lt;span style=&quot;font-size: 14px;&quot;&gt;&lt;b&gt;CapacidadRestaurante&lt;/b&gt;&lt;/span&gt;" style="swimlane;fontStyle=0;childLayout=stackLayout;horizontal=1;startSize=30;horizontalStack=0;resizeParent=1;resizeParentMax=0;resizeLast=0;collapsible=1;marginBottom=0;whiteSpace=wrap;html=1;" parent="1" vertex="1">
          <mxGeometry x="-600" y="30" width="160" height="40" as="geometry" />
        </mxCell>
        <mxCell id="7tjaN-nobCpIpOOMfUjn-55" style="edgeStyle=orthogonalEdgeStyle;rounded=0;orthogonalLoop=1;jettySize=auto;html=1;exitX=0;exitY=0.5;exitDx=0;exitDy=0;entryX=1;entryY=0.5;entryDx=0;entryDy=0;" parent="1" source="7tjaN-nobCpIpOOMfUjn-39" target="7tjaN-nobCpIpOOMfUjn-51" edge="1">
          <mxGeometry relative="1" as="geometry" />
        </mxCell>
        <mxCell id="7tjaN-nobCpIpOOMfUjn-39" value="&lt;span style=&quot;font-size: 14px;&quot;&gt;&lt;b&gt;QrMenú&lt;/b&gt;&lt;/span&gt;" style="swimlane;fontStyle=0;childLayout=stackLayout;horizontal=1;startSize=30;horizontalStack=0;resizeParent=1;resizeParentMax=0;resizeLast=0;collapsible=1;marginBottom=0;whiteSpace=wrap;html=1;" parent="1" vertex="1">
          <mxGeometry x="-600" y="120" width="160" height="40" as="geometry" />
        </mxCell>
        <mxCell id="9p7t4piKM5L8PV-O4CBv-1" style="edgeStyle=orthogonalEdgeStyle;rounded=0;orthogonalLoop=1;jettySize=auto;html=1;exitX=0;exitY=0.5;exitDx=0;exitDy=0;entryX=1;entryY=0.5;entryDx=0;entryDy=0;" edge="1" parent="1" source="7tjaN-nobCpIpOOMfUjn-42" target="7tjaN-nobCpIpOOMfUjn-44">
          <mxGeometry relative="1" as="geometry" />
        </mxCell>
        <mxCell id="7tjaN-nobCpIpOOMfUjn-42" value="&lt;span style=&quot;font-size: 14px;&quot;&gt;&lt;b&gt;Reservación&lt;/b&gt;&lt;/span&gt;" style="swimlane;fontStyle=0;childLayout=stackLayout;horizontal=1;startSize=30;horizontalStack=0;resizeParent=1;resizeParentMax=0;resizeLast=0;collapsible=1;marginBottom=0;whiteSpace=wrap;html=1;" parent="1" vertex="1">
          <mxGeometry x="-600" y="190" width="160" height="40" as="geometry" />
        </mxCell>
        <mxCell id="7tjaN-nobCpIpOOMfUjn-44" value="&lt;span style=&quot;font-size: 14px;&quot;&gt;&lt;b&gt;MesasReservadas&lt;/b&gt;&lt;/span&gt;" style="swimlane;fontStyle=0;childLayout=stackLayout;horizontal=1;startSize=30;horizontalStack=0;resizeParent=1;resizeParentMax=0;resizeLast=0;collapsible=1;marginBottom=0;whiteSpace=wrap;html=1;" parent="1" vertex="1">
          <mxGeometry x="-780" y="190" width="140" height="40" as="geometry" />
        </mxCell>
        <mxCell id="7tjaN-nobCpIpOOMfUjn-51" value="&lt;span style=&quot;font-size: 14px;&quot;&gt;&lt;b&gt;Menú&lt;/b&gt;&lt;/span&gt;" style="swimlane;fontStyle=0;childLayout=stackLayout;horizontal=1;startSize=30;horizontalStack=0;resizeParent=1;resizeParentMax=0;resizeLast=0;collapsible=1;marginBottom=0;whiteSpace=wrap;html=1;" parent="1" vertex="1">
          <mxGeometry x="-780" y="120" width="140" height="40" as="geometry" />
        </mxCell>
        <mxCell id="9p7t4piKM5L8PV-O4CBv-2" value="&lt;span style=&quot;font-size: 14px;&quot;&gt;&lt;b&gt;Capacidad&lt;/b&gt;&lt;/span&gt;" style="swimlane;fontStyle=0;childLayout=stackLayout;horizontal=1;startSize=30;horizontalStack=0;resizeParent=1;resizeParentMax=0;resizeLast=0;collapsible=1;marginBottom=0;whiteSpace=wrap;html=1;" vertex="1" parent="1">
          <mxGeometry x="-780" y="30" width="140" height="40" as="geometry" />
        </mxCell>
        <mxCell id="9p7t4piKM5L8PV-O4CBv-7" style="edgeStyle=orthogonalEdgeStyle;rounded=0;orthogonalLoop=1;jettySize=auto;html=1;" edge="1" parent="1" source="9p7t4piKM5L8PV-O4CBv-4" target="9p7t4piKM5L8PV-O4CBv-6">
          <mxGeometry relative="1" as="geometry" />
        </mxCell>
        <mxCell id="9p7t4piKM5L8PV-O4CBv-4" value="&lt;span style=&quot;font-size: 14px;&quot;&gt;&lt;b&gt;Quejas&lt;/b&gt;&lt;/span&gt;" style="swimlane;fontStyle=0;childLayout=stackLayout;horizontal=1;startSize=30;horizontalStack=0;resizeParent=1;resizeParentMax=0;resizeLast=0;collapsible=1;marginBottom=0;whiteSpace=wrap;html=1;" vertex="1" parent="1">
          <mxGeometry x="-600" y="260" width="160" height="40" as="geometry" />
        </mxCell>
        <mxCell id="9p7t4piKM5L8PV-O4CBv-6" value="&lt;span style=&quot;font-size: 14px;&quot;&gt;&lt;b&gt;QuejasCliente&lt;/b&gt;&lt;/span&gt;" style="swimlane;fontStyle=0;childLayout=stackLayout;horizontal=1;startSize=30;horizontalStack=0;resizeParent=1;resizeParentMax=0;resizeLast=0;collapsible=1;marginBottom=0;whiteSpace=wrap;html=1;" vertex="1" parent="1">
          <mxGeometry x="-780" y="260" width="140" height="40" as="geometry" />
        </mxCell>
      </root>
    </mxGraphModel>
  </diagram>
</mxfile>
